<svg xmlns="http://www.w3.org/2000/svg" fill="none" viewBox="0 0 24 24" id="Task-Alt--Streamline-Rounded-Material" height="24" width="24">
  <desc>
    Task Alt Streamline Icon: https://streamlinehq.com
  </desc>
  <path fill="#000000" d="M12 22c-1.41665 0 -2.73335 -0.25415 -3.95 -0.7625s-2.275 -1.2125 -3.175 -2.1125c-0.9 -0.9 -1.604165 -1.95835 -2.1125 -3.175C2.254165 14.73335 2 13.41665 2 12c0 -1.4 0.254165 -2.70835 0.7625 -3.925S3.975 5.8 4.875 4.9c0.9 -0.9 1.95835 -1.608335 3.175 -2.125C9.26665 2.258335 10.58335 2 12 2c1 0 1.975 0.145835 2.925 0.4375 0.95 0.291665 1.84165 0.720835 2.675 1.2875 0.18335 0.116665 0.29585 0.275 0.3375 0.475 0.04165 0.2 -0.00415 0.383335 -0.1375 0.55 -0.13335 0.166665 -0.3 0.25835 -0.5 0.275 -0.2 0.01665 -0.39165 -0.033335 -0.575 -0.15 -0.7 -0.45 -1.45 -0.791665 -2.25 -1.025C13.675 3.616665 12.85 3.5 12 3.5c-2.41665 0 -4.4375 0.8125 -6.0625 2.4375S3.5 9.58335 3.5 12s0.8125 4.4375 2.4375 6.0625S9.58335 20.5 12 20.5s4.4375 -0.8125 6.0625 -2.4375S20.5 14.41665 20.5 12c0 -0.31665 -0.0125 -0.625 -0.0375 -0.925 -0.025 -0.3 -0.07085 -0.59165 -0.1375 -0.875 -0.03335 -0.21665 0 -0.41665 0.1 -0.6 0.1 -0.18335 0.25 -0.29165 0.45 -0.325 0.21665 -0.05 0.41665 -0.0125 0.6 0.1125 0.18335 0.125 0.29165 0.29585 0.325 0.5125 0.06665 0.33335 0.11665 0.675 0.15 1.025 0.03335 0.35 0.05 0.70835 0.05 1.075 0 1.41665 -0.25835 2.73335 -0.775 3.95S20 18.225 19.1 19.125c-0.9 0.9 -1.95835 1.60415 -3.175 2.1125C14.70835 21.74585 13.4 22 12 22Zm-1.475 -7.725 9.8 -9.8c0.15 -0.15 0.33335 -0.225 0.55 -0.225 0.21665 0 0.40835 0.075 0.575 0.225 0.16665 0.166665 0.25 0.358335 0.25 0.575 0 0.21665 -0.08335 0.40835 -0.25 0.575l-10.4 10.4c-0.15 0.15 -0.325 0.225 -0.525 0.225s-0.375 -0.075 -0.525 -0.225l-3.05 -3.075c-0.15 -0.15 -0.22085 -0.3375 -0.2125 -0.5625 0.00835 -0.225 0.0875 -0.4125 0.2375 -0.5625 0.15 -0.15 0.3375 -0.225 0.5625 -0.225 0.225 0 0.4125 0.075 0.5625 0.225l2.425 2.45Z" stroke-width="0.5"></path>
</svg>