<svg xmlns="http://www.w3.org/2000/svg" fill="none" viewBox="0 0 24 24" id="Gesture--Streamline-Rounded-Material" height="24" width="24">
  <desc>
    Gesture Streamline Icon: https://streamlinehq.com
  </desc>
  <path fill="#000000" d="M14.025 21c-0.86665 0 -1.58335 -0.3 -2.15 -0.9 -0.56665 -0.6 -0.85 -1.375 -0.85 -2.325 0 -1.26665 0.55 -2.37915 1.65 -3.3375 1.1 -0.95835 2.45 -1.50415 4.05 -1.6375 -0.05 -0.91665 -0.24585 -1.59585 -0.5875 -2.0375 -0.34165 -0.44165 -0.85415 -0.6625 -1.5375 -0.6625 -0.7 0 -1.33335 0.21665 -1.9 0.65 -0.56665 0.43335 -1.3 1.26665 -2.2 2.5 -1 1.36665 -1.82915 2.30415 -2.4875 2.8125 -0.65835 0.50835 -1.37915 0.7625 -2.1625 0.7625 -0.883335 0 -1.579165 -0.2875 -2.0875 -0.8625C3.254165 15.3875 3 14.6 3 13.6c0 -0.53335 0.191665 -1.225 0.575 -2.075 0.383335 -0.85 1.025 -2.01665 1.925 -3.5 0.43335 -0.65 0.74585 -1.18335 0.9375 -1.6 0.19165 -0.41665 0.2875 -0.76665 0.2875 -1.05 0 -0.18335 -0.0625 -0.32915 -0.1875 -0.4375 -0.125 -0.108335 -0.30415 -0.1625 -0.5375 -0.1625 -0.18335 0 -0.37085 0.041665 -0.5625 0.125 -0.19165 0.083335 -0.39585 0.21665 -0.6125 0.4 -0.183335 0.15 -0.391665 0.22915 -0.625 0.2375 -0.233335 0.00835 -0.433335 -0.07915 -0.6 -0.2625 -0.183335 -0.18335 -0.266665 -0.4 -0.25 -0.65 0.016665 -0.25 0.116665 -0.458335 0.3 -0.625 0.383335 -0.333335 0.766665 -0.583335 1.15 -0.75 0.38335 -0.166665 0.775 -0.25 1.175 -0.25 0.71665 0 1.31665 0.233335 1.8 0.7 0.48335 0.466665 0.725 1.05 0.725 1.75 0 0.5 -0.12085 1.00835 -0.3625 1.525 -0.24165 0.51665 -0.7625 1.4 -1.5625 2.65 -0.75 1.15 -1.2375 1.9875 -1.4625 2.5125 -0.225 0.525 -0.3375 1.05415 -0.3375 1.5875 0 0.36665 0.125 0.67915 0.375 0.9375 0.25 0.25835 0.55 0.3875 0.9 0.3875 0.23335 0 0.4625 -0.05835 0.6875 -0.175 0.225 -0.11665 0.47085 -0.31665 0.7375 -0.6 0.21665 -0.23335 0.4625 -0.51665 0.7375 -0.85 0.275 -0.33335 0.60415 -0.75 0.9875 -1.25 1.1 -1.43335 2.0625 -2.43335 2.8875 -3 0.825 -0.56665 1.7375 -0.85 2.7375 -0.85 1.05 0 1.90415 0.39585 2.5625 1.1875S18.41665 11.375 18.5 12.725h1.625c0.25 0 0.45835 0.0875 0.625 0.2625 0.16665 0.175 0.25 0.3875 0.25 0.6375 0 0.25 -0.08335 0.45835 -0.25 0.625 -0.16665 0.16665 -0.375 0.25 -0.625 0.25H18.5c-0.13335 2 -0.6 3.58335 -1.4 4.75 -0.8 1.16665 -1.825 1.75 -3.075 1.75Zm0.075 -1.775c0.71665 0 1.325 -0.43335 1.825 -1.3s0.78335 -1.99165 0.85 -3.375c-1.1 0.11665 -2.0375 0.50835 -2.8125 1.175 -0.775 0.66665 -1.1625 1.40835 -1.1625 2.225 0 0.4 0.1125 0.7125 0.3375 0.9375 0.225 0.225 0.54585 0.3375 0.9625 0.3375Z" stroke-width="0.5"></path>
</svg>